<svg width="84" height="33" viewBox="0 0 84 33" fill="none" xmlns="http://www.w3.org/2000/svg">
<path d="M11.2778 17.4334C17.7298 17.4358 24.1339 17.438 30.538 17.4417C30.5669 17.4417 30.5958 17.4618 30.6583 17.4849C30.6583 18.4168 30.6583 19.3606 30.6583 20.3535C26.6245 20.3535 22.6112 20.3535 18.4666 20.3535C18.825 20.6452 19.101 20.8398 19.3393 21.0697C19.9654 21.6736 20.592 22.2786 21.1826 22.9133C21.4025 23.1495 21.604 23.2639 21.9439 23.2622C24.6588 23.2488 27.3739 23.2547 30.0889 23.2547C30.2631 23.2547 30.4373 23.2547 30.6517 23.2547C30.6517 24.2253 30.6517 25.1692 30.6517 26.1611C28.2317 26.1611 25.8126 26.1611 23.3397 26.1611C23.6682 27.1557 23.9779 28.0932 24.3028 29.0768C26.3923 29.0768 28.5099 29.0768 30.6594 29.0768C30.6594 30.0508 30.6594 30.9839 30.6594 31.9581C27.6291 31.9581 24.5903 31.9581 21.5333 31.9581C21.4423 31.2537 21.3866 30.5322 21.2517 29.8244C20.3193 24.933 16.0963 21.1309 10.8704 20.4755C10.2396 20.3964 9.59828 20.3641 8.96161 20.3614C6.1668 20.3496 3.3719 20.3567 0.577028 20.3569C0.406115 20.3569 0.235202 20.3569 0.0374146 20.3569C0.0374146 19.3723 0.0374146 18.4392 0.0374146 17.4334C3.77139 17.4334 7.50061 17.4334 11.2778 17.4334Z" fill="#0F6435"/>
<path d="M30.0396 10.3262C30.4504 11.7059 30.6965 13.0706 30.6678 14.5354C29.6991 14.5354 28.7467 14.5451 27.7957 14.5163C27.7229 14.5141 27.6048 14.2421 27.5995 14.0925C27.5237 11.9502 26.886 9.96632 25.6293 8.19534C23.3145 4.93334 20.0781 3.13851 15.9197 2.92776C15.4198 2.90243 15.3048 2.76494 15.326 2.32305C15.3628 1.55655 15.3362 0.787319 15.3362 0.0231976C20.4173 -0.173282 27.5691 2.8774 30.0396 10.3262Z" fill="#77AD3F"/>
<path d="M15.6235 25.7312C17.4524 27.4572 18.3681 29.5158 18.4151 31.9658C17.3938 31.9658 16.3992 31.9658 15.4813 31.9658C15.2551 31.1692 15.1458 30.3559 14.8003 29.6462C13.6922 27.3706 11.7586 26.208 9.11546 26.1835C6.29018 26.1573 3.46442 26.1779 0.638873 26.1781C0.450792 26.1781 0.262711 26.1781 0.0426636 26.1781C0.0426636 25.2039 0.0426636 24.2712 0.0426636 23.3151C0.0831364 23.3001 0.139495 23.2611 0.19577 23.2612C3.38816 23.2673 6.58162 23.2319 9.77256 23.301C12.0305 23.35 13.9647 24.2348 15.6235 25.7312Z" fill="#0E6434"/>
<path d="M3.00188 6.41951C0.482672 4.91502 -0.197996 2.67566 0.0465534 0.000486205C1.58866 -0.0179219 2.9227 0.486804 4.07683 1.44215C5.24146 2.40618 5.88106 3.64678 6.14836 5.09526C6.46804 3.3683 7.32456 1.97378 8.8463 0.977671C9.84655 0.322924 11.0452 -0.0163182 12.215 0.00986306C12.5287 2.29515 11.997 4.479 9.89383 6.0301C7.89059 7.50747 5.28275 7.6526 3.00188 6.41951Z" fill="#0B6232"/>
<path d="M6.94929 14.4815C3.70893 14.8363 1.1275 12.902 0.316029 10.5045C-0.038535 9.45691 0.0111508 8.3894 0.0202907 7.32195C2.67911 6.93122 5.33554 9.15726 6.16491 12.5102C6.39331 10.9817 7.02701 9.72712 8.19089 8.74531C9.34224 7.77408 10.687 7.27295 12.2338 7.27005C12.7847 11.3482 10.2728 13.993 6.94929 14.4815Z" fill="#0B6232"/>
<path d="M18.0902 6.19417C21.7137 7.40141 23.815 9.79053 24.4726 13.3352C24.5001 13.4836 24.5035 13.6363 24.5129 13.7873C24.5603 14.5423 24.5597 14.5423 23.7368 14.5423C23.1147 14.5423 22.4922 14.5292 21.8708 14.5476C21.5588 14.5569 21.4667 14.4489 21.4451 14.1592C21.2385 11.3879 19.1995 9.26326 16.3077 8.78312C15.9905 8.73046 15.54 8.76363 15.3954 8.582C15.2319 8.37651 15.3395 7.97355 15.3372 7.6564C15.3335 7.14172 15.3463 6.62675 15.3323 6.11239C15.3251 5.84421 15.4418 5.75487 15.706 5.79856C16.4883 5.92793 17.2707 6.05637 18.0902 6.19417Z" fill="#78AD3F"/>
<path d="M10.7978 31.9999C7.19306 31.9999 3.6361 31.9999 0.0442505 31.9999C0.0442505 31.0213 0.0442505 30.0773 0.0442505 29.1043C0.175585 29.0942 0.298313 29.0767 0.42105 29.0767C3.27829 29.0752 6.13555 29.0713 8.99278 29.0775C10.6204 29.081 11.7879 29.8839 12.1769 31.2559C12.2379 31.4711 12.2531 31.6979 12.3027 32C11.7851 32 11.3153 32 10.7978 31.9999Z" fill="#116536"/>
<path d="M16.3991 11.789C17.7023 12.328 18.461 13.3731 18.373 14.5422C17.4452 14.5422 16.5114 14.5476 15.578 14.5327C15.4968 14.5314 15.3497 14.3977 15.3483 14.3237C15.3323 13.4372 15.338 12.5503 15.338 11.5816C15.7263 11.6546 16.0457 11.7146 16.3991 11.789Z" fill="#7BAF44"/>
<path d="M39.7797 15V3.8H46.9637V5.8H41.9717V8.488H46.1317V10.488H41.9717V15H39.7797ZM55.9191 15L51.6311 3.8H53.8231L58.2391 15H55.9191ZM47.0711 15L51.4871 3.8H53.6791L49.3911 15H47.0711ZM49.1511 12.536V10.6H56.1751V12.536H49.1511ZM59.101 15V3.8H63.261C64.0503 3.8 64.749 3.95467 65.357 4.264C65.965 4.57333 66.4397 5 66.781 5.544C67.1223 6.07733 67.293 6.70133 67.293 7.416C67.293 8.12 67.1117 8.74933 66.749 9.304C66.397 9.848 65.9117 10.2747 65.293 10.584C64.6743 10.8827 63.9703 11.032 63.181 11.032H61.293V15H59.101ZM65.261 15L62.669 10.504L64.349 9.304L67.741 15H65.261ZM61.293 9.032H63.277C63.6077 9.032 63.901 8.96267 64.157 8.824C64.4237 8.68533 64.6317 8.49333 64.781 8.248C64.941 8.00267 65.021 7.72533 65.021 7.416C65.021 6.936 64.845 6.54667 64.493 6.248C64.1517 5.94933 63.709 5.8 63.165 5.8H61.293V9.032ZM68.9335 15V3.8H71.3175L74.5815 8.632L77.8455 3.8H80.2135V15H78.0375V7.224L74.5815 12.312L71.1255 7.24V15H68.9335Z" fill="#78AD3F"/>
<path d="M42.2892 30.18C41.2292 30.18 40.2892 29.95 39.4692 29.49C38.6592 29.02 38.0242 28.38 37.5642 27.57C37.1042 26.75 36.8742 25.81 36.8742 24.75C36.8742 23.96 37.0042 23.235 37.2642 22.575C37.5342 21.905 37.9042 21.33 38.3742 20.85C38.8542 20.36 39.4192 19.985 40.0692 19.725C40.7292 19.455 41.4542 19.32 42.2442 19.32C43.3042 19.32 44.2342 19.555 45.0342 20.025C45.8442 20.485 46.4792 21.125 46.9392 21.945C47.3992 22.755 47.6292 23.695 47.6292 24.765C47.6292 25.815 47.3992 26.75 46.9392 27.57C46.4892 28.38 45.8592 29.02 45.0492 29.49C44.2492 29.95 43.3292 30.18 42.2892 30.18ZM46.2192 30.63L42.3492 26.7L43.6692 25.455L47.5092 29.355L46.2192 30.63ZM42.2892 28.305C42.9292 28.305 43.4892 28.155 43.9692 27.855C44.4592 27.545 44.8392 27.125 45.1092 26.595C45.3892 26.065 45.5292 25.45 45.5292 24.75C45.5292 24.06 45.3892 23.45 45.1092 22.92C44.8292 22.38 44.4442 21.96 43.9542 21.66C43.4642 21.35 42.8942 21.195 42.2442 21.195C41.6142 21.195 41.0492 21.35 40.5492 21.66C40.0592 21.96 39.6742 22.38 39.3942 22.92C39.1142 23.45 38.9742 24.06 38.9742 24.75C38.9742 25.45 39.1142 26.065 39.3942 26.595C39.6742 27.125 40.0642 27.545 40.5642 27.855C41.0642 28.155 41.6392 28.305 42.2892 28.305ZM52.9852 30.21C52.1152 30.21 51.3602 30.04 50.7202 29.7C50.0802 29.36 49.5852 28.885 49.2352 28.275C48.8952 27.655 48.7252 26.925 48.7252 26.085V19.5H50.7802V26.085C50.7802 26.535 50.8702 26.93 51.0502 27.27C51.2402 27.6 51.5002 27.855 51.8302 28.035C52.1702 28.215 52.5652 28.305 53.0152 28.305C53.4652 28.305 53.8552 28.215 54.1852 28.035C54.5252 27.855 54.7852 27.6 54.9652 27.27C55.1552 26.93 55.2502 26.535 55.2502 26.085V19.5H57.3052V26.085C57.3052 26.925 57.1252 27.655 56.7652 28.275C56.4152 28.885 55.9152 29.36 55.2652 29.7C54.6252 30.04 53.8652 30.21 52.9852 30.21ZM58.9867 30V19.5H65.6317V21.375H61.0417V23.76H65.0017V25.59H61.0417V28.125H65.6917V30H58.9867ZM70.8947 30.18C70.3647 30.18 69.8697 30.115 69.4097 29.985C68.9497 29.855 68.5397 29.675 68.1797 29.445C67.8197 29.205 67.5197 28.94 67.2797 28.65C67.0497 28.36 66.8997 28.055 66.8297 27.735L68.8397 27.135C68.9697 27.475 69.1997 27.77 69.5297 28.02C69.8597 28.26 70.2747 28.385 70.7747 28.395C71.3047 28.405 71.7347 28.29 72.0647 28.05C72.4047 27.81 72.5747 27.5 72.5747 27.12C72.5747 26.79 72.4397 26.515 72.1697 26.295C71.9097 26.065 71.5497 25.89 71.0897 25.77L69.7247 25.41C69.2147 25.28 68.7647 25.085 68.3747 24.825C67.9847 24.555 67.6797 24.225 67.4597 23.835C67.2397 23.445 67.1297 22.99 67.1297 22.47C67.1297 21.48 67.4547 20.71 68.1047 20.16C68.7647 19.6 69.6947 19.32 70.8947 19.32C71.5647 19.32 72.1497 19.42 72.6497 19.62C73.1597 19.81 73.5847 20.085 73.9247 20.445C74.2647 20.805 74.5247 21.23 74.7047 21.72L72.7097 22.335C72.5897 21.995 72.3697 21.705 72.0497 21.465C71.7297 21.225 71.3247 21.105 70.8347 21.105C70.3347 21.105 69.9397 21.22 69.6497 21.45C69.3697 21.68 69.2297 22.005 69.2297 22.425C69.2297 22.755 69.3397 23.015 69.5597 23.205C69.7897 23.395 70.0997 23.54 70.4897 23.64L71.8697 23.985C72.7697 24.205 73.4697 24.6 73.9697 25.17C74.4697 25.74 74.7197 26.375 74.7197 27.075C74.7197 27.695 74.5697 28.24 74.2697 28.71C73.9697 29.17 73.5347 29.53 72.9647 29.79C72.3947 30.05 71.7047 30.18 70.8947 30.18ZM78.251 30V21.375H75.101V19.5H83.441V21.375H80.306V30H78.251Z" fill="#0F6435"/>
</svg>
