<svg width="119" height="100" viewBox="0 0 119 100" fill="none" xmlns="http://www.w3.org/2000/svg">
<path d="M11.2778 53.4334C17.7298 53.4358 24.1339 53.438 30.538 53.4417C30.5669 53.4417 30.5958 53.4618 30.6583 53.4849C30.6583 54.4168 30.6583 55.3606 30.6583 56.3535C26.6245 56.3535 22.6112 56.3535 18.4666 56.3535C18.825 56.6452 19.101 56.8398 19.3393 57.0697C19.9654 57.6736 20.592 58.2786 21.1826 58.9132C21.4025 59.1495 21.604 59.2639 21.9439 59.2622C24.6588 59.2488 27.3739 59.2547 30.0889 59.2547C30.2631 59.2547 30.4373 59.2547 30.6517 59.2547C30.6517 60.2253 30.6517 61.1692 30.6517 62.1611C28.2318 62.1611 25.8126 62.1611 23.3397 62.1611C23.6682 63.1557 23.9779 64.0932 24.3028 65.0768C26.3923 65.0768 28.5099 65.0768 30.6595 65.0768C30.6595 66.0508 30.6595 66.9839 30.6595 67.9581C27.6291 67.9581 24.5903 67.9581 21.5333 67.9581C21.4423 67.2537 21.3867 66.5322 21.2517 65.8244C20.3193 60.933 16.0963 57.1308 10.8704 56.4755C10.2396 56.3964 9.59831 56.3641 8.96164 56.3614C6.16683 56.3496 3.37193 56.3567 0.577059 56.3569C0.406145 56.3569 0.235232 56.3569 0.0374451 56.3569C0.0374451 55.3723 0.0374451 54.4392 0.0374451 53.4334C3.77142 53.4334 7.50064 53.4334 11.2778 53.4334Z" fill="white"/>
<path d="M30.0396 46.3262C30.4504 47.7059 30.6965 49.0706 30.6678 50.5355C29.6991 50.5355 28.7467 50.5451 27.7957 50.5163C27.7229 50.5141 27.6048 50.2421 27.5995 50.0925C27.5237 47.9502 26.886 45.9663 25.6293 44.1953C23.3145 40.9334 20.0781 39.1385 15.9197 38.9278C15.4198 38.9024 15.3048 38.7649 15.326 38.3231C15.3628 37.5566 15.3362 36.7873 15.3362 36.0232C20.4173 35.8267 27.5691 38.8774 30.0396 46.3262Z" fill="white"/>
<path d="M15.6236 61.7312C17.4525 63.4572 18.3681 65.5158 18.4151 67.9658C17.3938 67.9658 16.3993 67.9658 15.4813 67.9658C15.2551 67.1692 15.1458 66.3559 14.8003 65.6462C13.6922 63.3706 11.7587 62.208 9.11549 62.1835C6.29021 62.1573 3.46445 62.1779 0.638903 62.1781C0.450822 62.1781 0.262741 62.1781 0.0426941 62.1781C0.0426941 61.2039 0.0426941 60.2712 0.0426941 59.3151C0.0831669 59.3001 0.139526 59.2611 0.195801 59.2612C3.38819 59.2673 6.58165 59.2319 9.77259 59.301C12.0305 59.35 13.9647 60.2348 15.6236 61.7312Z" fill="white"/>
<path d="M3.00188 42.4195C0.482672 40.915 -0.197996 38.6757 0.0465534 36.0005C1.58866 35.9821 2.9227 36.4868 4.07683 37.4421C5.24146 38.4062 5.88106 39.6468 6.14836 41.0953C6.46804 39.3683 7.32456 37.9738 8.8463 36.9777C9.84655 36.3229 11.0452 35.9837 12.215 36.0099C12.5287 38.2951 11.997 40.479 9.89383 42.0301C7.89059 43.5075 5.28275 43.6526 3.00188 42.4195Z" fill="white"/>
<path d="M6.94926 50.4815C3.7089 50.8363 1.12747 48.902 0.315999 46.5045C-0.0385655 45.4569 0.0111203 44.3894 0.0202601 43.3219C2.67908 42.9312 5.33551 45.1573 6.16488 48.5102C6.39328 46.9817 7.02698 45.7271 8.19086 44.7453C9.3422 43.7741 10.687 43.2729 12.2337 43.27C12.7847 47.3482 10.2727 49.993 6.94926 50.4815Z" fill="white"/>
<path d="M18.0902 42.1942C21.7137 43.4014 23.815 45.7905 24.4726 49.3352C24.5001 49.4836 24.5035 49.6363 24.513 49.7873C24.5603 50.5423 24.5597 50.5423 23.7368 50.5423C23.1148 50.5423 22.4922 50.5292 21.8708 50.5476C21.5589 50.5569 21.4667 50.4489 21.4451 50.1592C21.2385 47.3879 19.1995 45.2633 16.3077 44.7831C15.9906 44.7305 15.54 44.7636 15.3955 44.582C15.2319 44.3765 15.3395 43.9736 15.3372 43.6564C15.3335 43.1417 15.3463 42.6268 15.3324 42.1124C15.3251 41.8442 15.4418 41.7549 15.706 41.7986C16.4883 41.9279 17.2707 42.0564 18.0902 42.1942Z" fill="white"/>
<path d="M10.7978 67.9999C7.19309 67.9999 3.63613 67.9999 0.044281 67.9999C0.044281 67.0213 0.044281 66.0773 0.044281 65.1043C0.175616 65.0942 0.298344 65.0768 0.421081 65.0767C3.27832 65.0752 6.13558 65.0713 8.99281 65.0775C10.6204 65.081 11.7879 65.8839 12.177 67.2559C12.238 67.4711 12.2531 67.6979 12.3027 68C11.7851 68 11.3154 68 10.7978 67.9999Z" fill="white"/>
<path d="M16.3991 47.789C17.7023 48.328 18.461 49.3731 18.373 50.5422C17.4452 50.5422 16.5114 50.5476 15.578 50.5327C15.4968 50.5315 15.3497 50.3978 15.3483 50.3237C15.3323 49.4372 15.338 48.5503 15.338 47.5816C15.7263 47.6546 16.0457 47.7146 16.3991 47.789Z" fill="white"/>
<path d="M39.7797 51V39.8H46.9637V41.8H41.9717V44.488H46.1317V46.488H41.9717V51H39.7797ZM55.9191 51L51.6311 39.8H53.8231L58.2391 51H55.9191ZM47.0711 51L51.4871 39.8H53.6791L49.3911 51H47.0711ZM49.1511 48.536V46.6H56.1751V48.536H49.1511ZM59.101 51V39.8H63.261C64.0503 39.8 64.749 39.9547 65.357 40.264C65.965 40.5733 66.4397 41 66.781 41.544C67.1223 42.0773 67.293 42.7013 67.293 43.416C67.293 44.12 67.1117 44.7493 66.749 45.304C66.397 45.848 65.9117 46.2747 65.293 46.584C64.6743 46.8827 63.9703 47.032 63.181 47.032H61.293V51H59.101ZM65.261 51L62.669 46.504L64.349 45.304L67.741 51H65.261ZM61.293 45.032H63.277C63.6077 45.032 63.901 44.9627 64.157 44.824C64.4237 44.6853 64.6317 44.4933 64.781 44.248C64.941 44.0027 65.021 43.7253 65.021 43.416C65.021 42.936 64.845 42.5467 64.493 42.248C64.1517 41.9493 63.709 41.8 63.165 41.8H61.293V45.032ZM68.9335 51V39.8H71.3175L74.5815 44.632L77.8455 39.8H80.2135V51H78.0375V43.224L74.5815 48.312L71.1255 43.24V51H68.9335ZM42.2892 66.18C41.2292 66.18 40.2892 65.95 39.4692 65.49C38.6592 65.02 38.0242 64.38 37.5642 63.57C37.1042 62.75 36.8742 61.81 36.8742 60.75C36.8742 59.96 37.0042 59.235 37.2642 58.575C37.5342 57.905 37.9042 57.33 38.3742 56.85C38.8542 56.36 39.4192 55.985 40.0692 55.725C40.7292 55.455 41.4542 55.32 42.2442 55.32C43.3042 55.32 44.2342 55.555 45.0342 56.025C45.8442 56.485 46.4792 57.125 46.9392 57.945C47.3992 58.755 47.6292 59.695 47.6292 60.765C47.6292 61.815 47.3992 62.75 46.9392 63.57C46.4892 64.38 45.8592 65.02 45.0492 65.49C44.2492 65.95 43.3292 66.18 42.2892 66.18ZM46.2192 66.63L42.3492 62.7L43.6692 61.455L47.5092 65.355L46.2192 66.63ZM42.2892 64.305C42.9292 64.305 43.4892 64.155 43.9692 63.855C44.4592 63.545 44.8392 63.125 45.1092 62.595C45.3892 62.065 45.5292 61.45 45.5292 60.75C45.5292 60.06 45.3892 59.45 45.1092 58.92C44.8292 58.38 44.4442 57.96 43.9542 57.66C43.4642 57.35 42.8942 57.195 42.2442 57.195C41.6142 57.195 41.0492 57.35 40.5492 57.66C40.0592 57.96 39.6742 58.38 39.3942 58.92C39.1142 59.45 38.9742 60.06 38.9742 60.75C38.9742 61.45 39.1142 62.065 39.3942 62.595C39.6742 63.125 40.0642 63.545 40.5642 63.855C41.0642 64.155 41.6392 64.305 42.2892 64.305ZM52.9852 66.21C52.1152 66.21 51.3602 66.04 50.7202 65.7C50.0802 65.36 49.5852 64.885 49.2352 64.275C48.8952 63.655 48.7252 62.925 48.7252 62.085V55.5H50.7802V62.085C50.7802 62.535 50.8702 62.93 51.0502 63.27C51.2402 63.6 51.5002 63.855 51.8302 64.035C52.1702 64.215 52.5652 64.305 53.0152 64.305C53.4652 64.305 53.8552 64.215 54.1852 64.035C54.5252 63.855 54.7852 63.6 54.9652 63.27C55.1552 62.93 55.2502 62.535 55.2502 62.085V55.5H57.3052V62.085C57.3052 62.925 57.1252 63.655 56.7652 64.275C56.4152 64.885 55.9152 65.36 55.2652 65.7C54.6252 66.04 53.8652 66.21 52.9852 66.21ZM58.9867 66V55.5H65.6317V57.375H61.0417V59.76H65.0017V61.59H61.0417V64.125H65.6917V66H58.9867ZM70.8947 66.18C70.3647 66.18 69.8697 66.115 69.4097 65.985C68.9497 65.855 68.5397 65.675 68.1797 65.445C67.8197 65.205 67.5197 64.94 67.2797 64.65C67.0497 64.36 66.8997 64.055 66.8297 63.735L68.8397 63.135C68.9697 63.475 69.1997 63.77 69.5297 64.02C69.8597 64.26 70.2747 64.385 70.7747 64.395C71.3047 64.405 71.7347 64.29 72.0647 64.05C72.4047 63.81 72.5747 63.5 72.5747 63.12C72.5747 62.79 72.4397 62.515 72.1697 62.295C71.9097 62.065 71.5497 61.89 71.0897 61.77L69.7247 61.41C69.2147 61.28 68.7647 61.085 68.3747 60.825C67.9847 60.555 67.6797 60.225 67.4597 59.835C67.2397 59.445 67.1297 58.99 67.1297 58.47C67.1297 57.48 67.4547 56.71 68.1047 56.16C68.7647 55.6 69.6947 55.32 70.8947 55.32C71.5647 55.32 72.1497 55.42 72.6497 55.62C73.1597 55.81 73.5847 56.085 73.9247 56.445C74.2647 56.805 74.5247 57.23 74.7047 57.72L72.7097 58.335C72.5897 57.995 72.3697 57.705 72.0497 57.465C71.7297 57.225 71.3247 57.105 70.8347 57.105C70.3347 57.105 69.9397 57.22 69.6497 57.45C69.3697 57.68 69.2297 58.005 69.2297 58.425C69.2297 58.755 69.3397 59.015 69.5597 59.205C69.7897 59.395 70.0997 59.54 70.4897 59.64L71.8697 59.985C72.7697 60.205 73.4697 60.6 73.9697 61.17C74.4697 61.74 74.7197 62.375 74.7197 63.075C74.7197 63.695 74.5697 64.24 74.2697 64.71C73.9697 65.17 73.5347 65.53 72.9647 65.79C72.3947 66.05 71.7047 66.18 70.8947 66.18ZM78.251 66V57.375H75.101V55.5H83.441V57.375H80.306V66H78.251Z" fill="white"/>
</svg>
